<?xml version="1.0" encoding="iso-8859-1"?>
<!-- Uploaded to: SVG Repo, www.svgrepo.com, Generator: SVG Repo Mixer Tools -->
<svg version="1.1" id="Layer_1" xmlns="http://www.w3.org/2000/svg" xmlns:xlink="http://www.w3.org/1999/xlink" 
	 viewBox="0 0 512.001 512.001" xml:space="preserve">
<g>
	<path style="fill:#E0B394;" d="M168.107,240.262c-14.208-0.63-25.517-12.352-25.517-26.709c0-14.758,11.962-26.732,26.732-26.732
		c1.329,0,2.635,0.092,3.919,0.286"/>
	<path style="fill:#E0B394;" d="M407.378,240.262c14.208-0.63,25.529-12.352,25.529-26.709c0-14.758-11.974-26.732-26.743-26.732
		c-1.329,0-2.647,0.103-3.919,0.286"/>
</g>
<rect x="23.972" y="304.674" style="fill:#71C5F4;" width="138.644" height="34.375"/>
<rect x="80.689" y="340.194" style="fill:#B3B3B3;" width="25.208" height="131.197"/>
<path style="fill:#5E86B7;" d="M412.646,407.977v104.018H162.857V407.977c0-29.001,17.428-53.945,42.395-64.899
	c8.708-3.839,18.345-5.958,28.474-5.958h108.051C380.919,337.119,412.646,368.847,412.646,407.977z"/>
<path style="fill:#527BA3;" d="M277.383,337.118h-43.663c-39.137,0-70.864,31.727-70.864,70.864v104.019h43.663V407.982
	C206.52,368.845,238.247,337.118,277.383,337.118z"/>
<g>
	<path style="fill:#CCCCCC;" d="M205.253,343.077v168.917h-42.395V407.977C162.857,378.976,180.284,354.031,205.253,343.077z"/>
	<path style="fill:#CCCCCC;" d="M370.251,343.077v168.917h42.395V407.977C412.646,378.976,395.218,354.031,370.251,343.077z"/>
</g>
<g>
	<circle style="fill:#C0E7F9;" cx="446.779" cy="61.187" r="21.771"/>
	<circle style="fill:#C0E7F9;" cx="473.133" cy="124.207" r="14.896"/>
	<circle style="fill:#C0E7F9;" cx="427.873" cy="120.334" r="6.111"/>
	<circle style="fill:#C0E7F9;" cx="466.453" cy="309.017" r="6.111"/>
	<circle style="fill:#C0E7F9;" cx="136.674" cy="265.258" r="8.614"/>
	<circle style="fill:#C0E7F9;" cx="153.266" cy="72.977" r="6.111"/>
	<circle style="fill:#C0E7F9;" cx="138.553" cy="30.245" r="14.896"/>
</g>
<path style="fill:#EA8249;" d="M162.617,311.544H23.972v22.315c0,6.661,5.399,12.06,12.06,12.06h114.525
	c6.661,0,12.06-5.399,12.06-12.06L162.617,311.544L162.617,311.544z"/>
<path style="fill:#F7CBA4;" d="M338.309,316.705v60.327c0,27.924-22.641,50.565-50.565,50.565
	c-27.924,0-50.554-22.641-50.554-50.565v-52.307L338.309,316.705z"/>
<path style="fill:#E0B394;" d="M338.309,316.705v48.044l-11.882,8.628c-23.065,16.763-54.289,16.763-77.354,0l-11.882-8.628v-40.024
	L338.309,316.705z"/>
<path style="fill:#F7CBA4;" d="M373.451,321.644l-47.025,34.168c-23.065,16.752-54.289,16.752-77.354,0l-47.036-34.168
	c-24.853-18.058-38.293-47.93-35.337-78.5l6.818-70.502l1.341-13.922c5.615-58.15,54.472-102.517,112.886-102.517
	c29.218,0,56.031,11.092,76.254,29.448c20.224,18.368,33.836,44,36.643,73.069l1.341,13.922l6.818,70.502
	C411.756,273.714,398.316,303.585,373.451,321.644z"/>
<g>
	<path style="fill:#E0B394;" d="M195.966,259.775c-0.791,13.372,3.564,26.526,12.18,36.781l49.159,60.408
		c2.567,3.059,5.477,5.626,8.628,7.677c-5.912-2.062-11.596-5.019-16.855-8.834l-47.036-34.168
		c-24.853-18.058-38.293-47.918-35.337-78.5l8.147-84.424c5.569-57.578,53.533-101.646,111.202-102.482
		c-35.52,0.859-75.742,34.34-77.839,69.998L195.966,259.775z"/>
	<path style="fill:#E0B394;" d="M401.982,172.641h-62.161l-9.888,28.646h-84.378l-9.877-28.646h-62.161l1.341-13.922
		c5.615-58.15,54.472-102.517,112.886-102.517c29.218,0,56.031,11.092,76.254,29.448c20.224,18.368,33.836,44,36.643,73.069
		L401.982,172.641z"/>
</g>
<path style="fill:#EA8249;" d="M410.68,128.331h-10.068c0-31.166-12.627-59.376-33.057-79.806
	c-15.148-15.148-34.581-26.01-56.317-30.605h-0.003V0h-46.979v17.92c-51.057,10.806-89.371,56.134-89.371,110.41H164.81
	l-6.89,34.375h77.755l9.882,28.646h84.377l9.882-28.646h77.755L410.68,128.331z"/>
<path style="fill:#D36F3D;" d="M211.74,128.331c0-54.276,25.803-99.604,60.187-110.41V0h-7.67v17.921
	c-51.057,10.806-89.371,56.134-89.371,110.41h-10.075l-6.89,34.375h69.115l4.641-34.375
	C231.676,128.331,211.74,128.331,211.74,128.331z"/>
<g>
	<path style="fill:#71C5F4;" d="M46.889,293.211c-4.747,0-8.594-3.848-8.594-8.594c0-7.811-1.933-11.212-4.607-15.92
		c-3.052-5.372-6.851-12.056-6.851-24.411c0-12.354,3.798-19.039,6.851-24.412c2.674-4.707,4.607-8.109,4.607-15.921
		c0-7.811-1.933-11.212-4.607-15.92c-3.052-5.372-6.851-12.056-6.851-24.411c0-12.355,3.798-19.041,6.851-24.414
		c2.675-4.707,4.607-8.109,4.607-15.922s-1.933-11.215-4.607-15.923c-3.051-5.372-6.851-12.057-6.851-24.413
		c0-4.746,3.847-8.594,8.594-8.594s8.594,3.848,8.594,8.594c0,7.813,1.933,11.215,4.607,15.923
		c3.051,5.372,6.851,12.057,6.851,24.413c0,12.354-3.798,19.04-6.851,24.413c-2.675,4.707-4.607,8.109-4.607,15.922
		c0,7.811,1.933,11.213,4.607,15.92c3.052,5.372,6.851,12.056,6.851,24.411s-3.798,19.039-6.851,24.412
		c-2.674,4.707-4.607,8.109-4.607,15.921c0,7.811,1.933,11.212,4.607,15.92c3.052,5.372,6.851,12.056,6.851,24.411
		C55.482,289.363,51.635,293.211,46.889,293.211z"/>
	<path style="fill:#71C5F4;" d="M99.894,293.211c-4.747,0-8.594-3.848-8.594-8.594c0-7.811-1.933-11.212-4.607-15.92
		c-3.052-5.372-6.851-12.056-6.851-24.411c0-12.354,3.798-19.039,6.851-24.412c2.674-4.707,4.607-8.109,4.607-15.921
		c0-7.811-1.933-11.212-4.607-15.92c-3.052-5.372-6.851-12.056-6.851-24.411c0-12.355,3.798-19.041,6.851-24.414
		c2.675-4.707,4.607-8.109,4.607-15.922s-1.933-11.215-4.607-15.923c-3.051-5.372-6.851-12.057-6.851-24.413
		c0-4.746,3.847-8.594,8.594-8.594c4.747,0,8.594,3.848,8.594,8.594c0,7.813,1.933,11.215,4.607,15.923
		c3.051,5.372,6.851,12.057,6.851,24.413c0,12.354-3.798,19.04-6.851,24.413c-2.675,4.707-4.607,8.109-4.607,15.922
		c0,7.811,1.933,11.213,4.607,15.92c3.052,5.372,6.851,12.056,6.851,24.411s-3.798,19.039-6.851,24.412
		c-2.674,4.707-4.607,8.109-4.607,15.921c0,7.811,1.933,11.212,4.607,15.92c3.052,5.372,6.851,12.056,6.851,24.411
		C108.488,289.363,104.642,293.211,99.894,293.211z"/>
</g>
<path style="fill:#F2F2F2;" d="M332.604,287.653c0,0-0.653,1.604-2.028,4.136c-0.332,0.653-0.722,1.341-1.157,2.085
	c-0.516,0.733-1.111,1.478-1.753,2.315c-0.642,0.836-1.375,1.684-2.154,2.624c-0.275,0.355-0.573,0.653-0.894,0.962
	c-0.115,0.115-0.241,0.229-0.367,0.344c-0.447,0.412-0.905,0.848-1.375,1.283c-0.94,0.882-1.959,1.753-3.025,2.67
	c-1.123,0.825-2.326,1.604-3.564,2.452c-0.619,0.424-1.26,0.836-1.914,1.249c-0.653,0.39-1.352,0.71-2.062,1.066
	c-1.398,0.71-2.853,1.398-4.354,2.085c-3.094,1.054-6.313,2.292-9.751,2.807c-3.392,0.791-6.932,0.917-10.461,1.089
	c-3.529-0.172-7.07-0.286-10.461-1.077c-3.437-0.516-6.657-1.753-9.751-2.807c-1.501-0.676-2.956-1.364-4.366-2.074
	c-0.699-0.355-1.398-0.676-2.062-1.066c-0.642-0.424-1.283-0.825-1.902-1.249c-1.237-0.848-2.452-1.638-3.575-2.452
	c-1.066-0.917-2.074-1.799-3.025-2.67c-0.47-0.447-0.917-0.871-1.364-1.295c-0.16-0.149-0.321-0.298-0.481-0.447
	c-0.275-0.275-0.539-0.539-0.768-0.848c-0.745-0.905-1.467-1.742-2.097-2.567c-0.619-0.836-1.226-1.57-1.73-2.303
	c-0.458-0.779-0.882-1.49-1.237-2.143c-1.432-2.612-2.028-4.171-2.028-4.171s1.696,0.516,4.308,1.57
	c0.665,0.252,1.352,0.561,2.12,0.871c0.814,0.241,1.65,0.55,2.544,0.848c0.905,0.298,1.81,0.665,2.773,1.008
	c0.951,0.367,2.028,0.607,3.094,0.928c1.066,0.309,2.131,0.687,3.243,1.02c1.157,0.252,2.315,0.55,3.506,0.836
	c0.596,0.138,1.18,0.309,1.776,0.47c0.607,0.137,1.237,0.218,1.856,0.344c1.249,0.218,2.498,0.47,3.747,0.756
	c2.601,0.241,5.168,0.814,7.849,0.917c2.647,0.344,5.351,0.252,8.032,0.412c2.693-0.16,5.397-0.057,8.044-0.401
	c2.681-0.092,5.248-0.676,7.849-0.917c1.249-0.275,2.498-0.527,3.747-0.745c0.619-0.126,1.249-0.206,1.856-0.344
	c0.596-0.172,1.192-0.332,1.776-0.47c1.192-0.286,2.349-0.596,3.506-0.836c1.123-0.332,2.189-0.71,3.254-1.02
	c1.054-0.321,2.154-0.573,3.071-0.928c0.94-0.321,1.822-0.676,2.716-0.951c0.882-0.298,1.707-0.596,2.521-0.836
	c0.802-0.344,1.513-0.676,2.189-0.94C330.942,288.134,332.604,287.653,332.604,287.653z"/>
<g>
	<path style="fill:#4D4D4D;" d="M324.618,299.776c-0.115,0.115-0.241,0.229-0.367,0.344c-0.447,0.412-0.905,0.848-1.375,1.283
		c-0.94,0.882-1.959,1.753-3.025,2.67c-1.123,0.825-2.326,1.604-3.564,2.452c-0.619,0.424-1.26,0.836-1.914,1.249
		c-0.653,0.39-1.352,0.71-2.062,1.066c-1.398,0.71-2.853,1.398-4.354,2.085c-3.094,1.054-6.313,2.292-9.751,2.807
		c-3.392,0.791-6.932,0.917-10.461,1.089c-3.529-0.172-7.07-0.286-10.461-1.077c-3.437-0.516-6.657-1.753-9.751-2.807
		c-1.501-0.676-2.956-1.364-4.366-2.074c-0.699-0.355-1.398-0.676-2.062-1.066c-0.642-0.424-1.283-0.825-1.902-1.249
		c-1.237-0.848-2.452-1.638-3.575-2.452c-1.066-0.917-2.074-1.799-3.025-2.67c-0.47-0.447-0.917-0.871-1.364-1.295
		c-0.16-0.149-0.321-0.298-0.481-0.447c0.367,0.126,0.733,0.252,1.111,0.378c0.905,0.298,1.81,0.653,2.773,0.997
		c0.951,0.378,2.028,0.619,3.094,0.94c1.066,0.309,2.131,0.676,3.243,1.02c1.157,0.241,2.315,0.55,3.506,0.836
		c0.596,0.138,1.18,0.298,1.776,0.458c0.607,0.137,1.237,0.218,1.856,0.344c1.249,0.218,2.498,0.481,3.747,0.756
		c2.601,0.252,5.168,0.825,7.849,0.917c2.647,0.355,5.351,0.252,8.032,0.424c2.693-0.16,5.397-0.057,8.044-0.412
		c2.681-0.092,5.248-0.665,7.849-0.905c1.249-0.275,2.498-0.539,3.747-0.756c0.619-0.126,1.249-0.206,1.856-0.344
		c0.596-0.16,1.192-0.321,1.776-0.458c1.192-0.286,2.349-0.596,3.506-0.836c1.123-0.344,2.189-0.722,3.254-1.02
		c1.054-0.321,2.154-0.584,3.071-0.928c0.94-0.332,1.822-0.676,2.716-0.962C323.919,300.016,324.274,299.89,324.618,299.776z"/>
	<path style="fill:#4D4D4D;" d="M236.74,249.269c-4.746,0-8.594-3.848-8.594-8.594V226.93c0-4.746,3.848-8.594,8.594-8.594
		c4.746,0,8.594,3.848,8.594,8.594v13.745C245.334,245.421,241.486,249.269,236.74,249.269z"/>
	<path style="fill:#4D4D4D;" d="M338.757,249.269c-4.746,0-8.594-3.848-8.594-8.594V226.93c0-4.746,3.848-8.594,8.594-8.594
		c4.746,0,8.594,3.848,8.594,8.594v13.745C347.351,245.421,343.503,249.269,338.757,249.269z"/>
</g>
<path style="fill:#E0B394;" d="M300.925,214.327v40.677c0,7.277-5.9,13.177-13.177,13.177l0,0c-7.277,0-13.177-5.9-13.177-13.177
	v-40.677"/>
</svg>